<?xml version="1.0" standalone="no"?>
<!DOCTYPE svg PUBLIC "-//W3C//DTD SVG 1.1//EN" "http://www.w3.org/Graphics/SVG/1.1/DTD/svg11.dtd"><svg t="1679972027381"
  class="icon" viewBox="0 0 1024 1024" version="1.1" xmlns="http://www.w3.org/2000/svg" p-id="2632" width="32"
  height="32" xmlns:xlink="http://www.w3.org/1999/xlink">
  <path
    d="M520.97024 942.08A437.82144 437.82144 0 0 1 81.92 502.9888v-2.00704C81.92 485.00736 95.88736 471.04 111.86176 471.04h1.98656c115.75296 0 227.51232 45.91616 311.31648 127.73376 83.82464 83.84512 129.72032 195.60448 127.73376 313.36448 0 15.9744-13.96736 29.94176-29.94176 29.94176h-1.98656zM143.7696 530.92352c13.96736 187.5968 161.64864 337.3056 349.24544 351.27296-6.00064-89.8048-45.91616-175.63648-109.7728-239.5136-63.85664-65.86368-149.66784-103.77216-239.47264-111.75936z"
    fill="red" p-id="2633"></path>
  <path
    d="M512 942.08C274.57536 942.08 83.8656 750.4896 81.92 513.9456 81.92 275.456 272.62976 81.92 510.0544 81.92H512c237.42464 0 428.1344 191.5904 430.08 428.1344 0 238.4896-190.70976 430.08-426.1888 432.0256H512z m0-801.50528h-1.9456c-204.32896 1.9456-369.74592 168.12032-367.8208 373.37088 0 97.75104 38.93248 191.5904 108.99456 260.01408 68.11648 70.36928 163.47136 109.4656 260.77184 109.4656h1.9456c204.32896-1.9456 367.8208-168.12032 367.8208-373.37088 0-97.75104-38.93248-191.5904-108.99456-260.01408C704.65536 179.67104 609.30048 140.57472 512 140.57472z"
    fill="red" p-id="2634"></path>
  <path
    d="M317.15328 859.9552c-30.57664 1.90464-61.15328-9.58464-82.18624-30.67904-38.21568-38.33856-40.1408-105.41056-5.7344-191.6928 42.04544-90.07104 99.38944-172.50304 170.0864-239.59552a796.8768 796.8768 0 0 1 238.87872-168.67328c84.09088-34.5088 150.97856-32.58368 191.09888 5.7344 40.1408 38.35904 40.1408 105.45152 5.7344 191.6928-42.04544 90.112-99.36896 172.52352-170.06592 241.52064a813.13792 813.13792 0 0 1-238.87872 170.5984c-34.4064 13.43488-72.62208 21.0944-108.9536 21.0944z m428.07296-598.05696c-28.672 1.92512-59.24864 7.68-86.016 21.0944-82.16576 38.33856-158.59712 91.99616-221.67552 157.184-64.96256 63.24224-118.4768 137.99424-158.59712 222.35136-24.86272 59.41248-26.76736 107.3152-7.65952 128.4096 19.10784 21.0944 68.8128 17.26464 128.04096-7.65952 82.18624-38.33856 158.6176-91.99616 221.67552-157.184a731.48416 731.48416 0 0 0 156.71296-222.35136c24.84224-59.41248 26.74688-107.33568 7.63904-128.4096-9.54368-11.50976-24.84224-15.36-40.1408-13.43488z"
    fill="red" p-id="2635"></path>
  <path
    d="M911.07328 539.81184c-112.37376 0-220.89728-44.6464-302.2848-124.17024-81.36704-81.5104-125.952-190.13632-124.0064-304.61952 0-15.52384 11.63264-29.10208 29.0816-29.10208h1.92512C752.18944 81.92 942.08 272.05632 942.08 508.76416v1.9456c0 15.52384-13.55776 29.0816-29.0816 29.0816h-1.92512zM542.9248 142.06976c5.81632 87.30624 44.56448 170.74176 106.57792 232.81664 61.99296 62.09536 145.3056 100.90496 232.50944 106.7008-13.02528-181.82144-157.4912-326.49216-339.08736-339.51744zM796.75392 819.2c-7.74144 0-15.50336-3.8912-21.2992-7.76192L213.504 248.77056a30.47424 30.47424 0 0 1 0-42.68032c11.61216-11.63264 29.06112-11.63264 40.69376 0L816.128 768.75776a28.16 28.16 0 0 1 0 40.7552c-3.87072 5.81632-11.61216 9.68704-19.37408 9.68704z"
    fill="red" p-id="2636"></path>
</svg>